<?xml version="1.0" ?><svg xmlns="http://www.w3.org/2000/svg" width="24" height="24" viewBox="0 0 24 24" fill="none"><g id="letter-g"><g id="outline" filter="url(#filter0_d_1701_1169)"><path d="M19 21C19.5523 21 20 20.5523 20 20V11V9.22938V9V11V9.22938C19.4972 5.71406 16.4041 2.5 12.75 2.5H11.25C7.24594 2.5 4 5.74593 4 9.75V13.75C4 17.7541 7.24594 21 11.25 21H19Z" fill="white"/></g><path id="icon" d="M11.25 7.5C10.0074 7.5 9 8.50736 9 9.75V13.75C9 14.9926 10.0074 16 11.25 16H15V14H12V11H18V19H11.25C8.3505 19 6 16.6495 6 13.75V9.75C6 6.8505 8.35051 4.5 11.25 4.5H12.75C15.3949 4.5 17.5829 6.45578 17.9468 9H14.872C14.5631 8.12611 13.7297 7.5 12.75 7.5H11.25Z" fill="#1452CC"/></g><defs><filter id="filter0_d_1701_1169" x="2" y="1" width="20" height="22.5" filterUnits="userSpaceOnUse" color-interpolation-filters="sRGB"><feFlood flood-opacity="0" result="BackgroundImageFix"/><feColorMatrix in="SourceAlpha" type="matrix" values="0 0 0 0 0 0 0 0 0 0 0 0 0 0 0 0 0 0 127 0" result="hardAlpha"/><feOffset dy="0.5"/><feGaussianBlur stdDeviation="1"/><feComposite in2="hardAlpha" operator="out"/><feColorMatrix type="matrix" values="0 0 0 0 0 0 0 0 0 0 0 0 0 0 0 0 0 0 0.25 0"/><feBlend mode="normal" in2="BackgroundImageFix" result="effect1_dropShadow_1701_1169"/><feBlend mode="normal" in="SourceGraphic" in2="effect1_dropShadow_1701_1169" result="shape"/></filter></defs></svg>